<svg viewBox="0 0 800 800" xmlns="http://www.w3.org/2000/svg">
  <defs>
    <linearGradient id="bg2" x1="0" y1="0" x2="1" y2="1">
      <stop offset="0%" stop-color="#1F1030"/>
      <stop offset="60%" stop-color="#120A1C"/>
      <stop offset="100%" stop-color="#0B0A0C"/>
    </linearGradient>
    <linearGradient id="gold2" x1="0" y1="0" x2="1" y2="1">
      <stop offset="0%" stop-color="#F7D774"/>
      <stop offset="50%" stop-color="#C9932E"/>
      <stop offset="100%" stop-color="#8A5D1A"/>
    </linearGradient>
    <filter id="grain2">
      <feTurbulence type="fractalNoise" baseFrequency="0.85" numOctaves="2" stitchTiles="stitch" result="n"/>
      <feColorMatrix in="n" type="matrix" values="0 0 0 0 0  0 0 0 0 0  0 0 0 0 0  0 0 0 0.06 0"/>
    </filter>
  </defs>

  <rect width="800" height="800" fill="url(#bg2)"/>

  <!-- halftone dot field -->
  <g fill="#7C3AED" opacity="0.18">
    <circle cx="80" cy="80" r="4"/><circle cx="140" cy="80" r="4"/><circle cx="200" cy="80" r="4"/>
    <circle cx="80" cy="140" r="4"/><circle cx="140" cy="140" r="4"/><circle cx="200" cy="140" r="4"/>
    <circle cx="600" cy="640" r="5"/><circle cx="660" cy="640" r="5"/><circle cx="720" cy="640" r="5"/>
    <circle cx="600" cy="700" r="5"/><circle cx="660" cy="700" r="5"/><circle cx="720" cy="700" r="5"/>
    <circle cx="600" cy="760" r="5"/><circle cx="660" cy="760" r="5"/><circle cx="720" cy="760" r="5"/>
  </g>

  <!-- chain arc -->
  <g fill="none" stroke="url(#gold2)" stroke-width="10">
    <path d="M180 520 Q 400 720 620 520" />
  </g>
  <g fill="url(#gold2)">
    <circle cx="200" cy="535" r="16"/>
    <circle cx="255" cy="580" r="16"/>
    <circle cx="315" cy="610" r="16"/>
    <circle cx="380" cy="622" r="16"/>
    <circle cx="445" cy="618" r="16"/>
    <circle cx="505" cy="600" r="16"/>
    <circle cx="560" cy="568" r="16"/>
    <circle cx="605" cy="528" r="16"/>
  </g>
  <!-- pendant -->
  <polygon points="400,600 445,660 400,720 355,660" fill="url(#gold2)" stroke="#4A2E0C" stroke-width="2"/>
  <polygon points="400,615 428,660 400,700 372,660" fill="#1F1030" opacity="0.5"/>

  <!-- crown mark top right -->
  <g transform="translate(600,90)" fill="url(#gold2)">
    <polygon points="0,60 10,10 35,45 60,0 85,45 110,10 120,60"/>
    <rect x="0" y="58" width="120" height="16"/>
  </g>

  <rect width="800" height="800" filter="url(#grain2)"/>

  <text x="60" y="180" font-family="Arial, Helvetica, sans-serif" font-weight="900" font-size="80" letter-spacing="-2" fill="#F5F1E8">KING</text>
  <text x="60" y="238" font-family="Arial, Helvetica, sans-serif" font-weight="900" font-size="46" letter-spacing="-1" fill="#C9932E">SIZE</text>
  <text x="62" y="272" font-family="Arial, Helvetica, sans-serif" font-weight="600" font-size="20" letter-spacing="6" fill="#9A8FB0">NO CROWN NO CROWD</text>
</svg>
